Coordinates
version=1
nRows=29
nColumns=22
inDegrees=yes

Units are S.I. units (second, meters, Newtons, ...)
If the header above contains a line with 'inDegrees', this indicates whether rotational values are in degrees (yes) or radians (no).

endheader
time	pelvis_tilt	pelvis_list	pelvis_rotation	pelvis_tx	pelvis_ty	pelvis_tz	hip_flexion_r	hip_adduction_r	hip_rotation_r	knee_angle_r	ankle_angle_r	subtalar_angle_r	hip_flexion_l	hip_adduction_l	hip_rotation_l	knee_angle_l	ankle_angle_l	subtalar_angle_l	lumbar_extension	lumbar_bending	lumbar_rotation
      1.10000000	    -10.46662561	      1.61020094	    -32.77553087	     -1.59010520	      0.87759990	     -0.49226542	     10.50649706	      0.19129440	      0.00084636	    -10.74709282	     14.90259743	      1.87558675	     10.05155453	     -8.99396637	     -5.00231759	    -18.00676919	     21.68508240	      3.29098411	      1.81931255	      3.46363588	     11.88854220
      1.11000000	    -10.54218095	      1.64308636	    -32.82925140	     -1.58870436	      0.87736553	     -0.49220653	     10.46254080	      0.15551707	      0.04721452	    -10.65687135	     14.95088834	      1.91162688	     10.05080850	     -8.94794066	     -4.97027249	    -18.03861062	     21.84488367	      3.22412553	      1.84838819	      3.48976049	     11.92933160
      1.12000000	    -10.62866877	      1.66851951	    -32.89745286	     -1.58725150	      0.87711635	     -0.49211815	     10.42349813	      0.13412254	      0.10156105	    -10.56980098	     14.98500625	      1.96816238	     10.05384459	     -8.91854326	     -4.96085727	    -18.08269714	     22.00295949	      3.12910707	      1.87673278	      3.52881149	     11.99517380
      1.13000000	    -10.72008418	      1.70185605	    -32.97179390	     -1.58572076	      0.87685184	     -0.49201884	     10.40159746	      0.10603225	      0.15145439	    -10.50525626	     15.01677582	      2.11978856	     10.04905973	     -8.88192610	     -4.96680868	    -18.10877538	     22.12344589	      2.90483315	      1.90984214	      3.56478245	     12.08017863
      1.14000000	    -10.79740640	      1.73940980	    -33.02617055	     -1.58409604	      0.87657790	     -0.49194020	     10.36569085	      0.06131364	      0.18979295	    -10.44682379	     15.07151013	      2.14707268	     10.02555836	     -8.82620491	     -4.94343687	    -18.12326770	     22.25028627	      2.88609692	      1.92572799	      3.58496307	     12.13081848
      1.15000000	    -10.87877894	      1.78074918	    -33.08570890	     -1.58240580	      0.87627850	     -0.49185629	     10.33927161	      0.01407950	      0.24058308	    -10.40318538	     15.13601797	      2.19418727	      9.99203397	     -8.76868803	     -4.94261577	    -18.11828503	     22.37132566	      2.86248250	      1.93971002	      3.60518813	     12.19146018
      1.16000000	    -10.95980402	      1.82633063	    -33.14146523	     -1.58064023	      0.87595813	     -0.49177112	     10.31881627	     -0.04006308	      0.28635822	    -10.37533998	     15.21176192	      2.25396410	      9.95014050	     -8.70373805	     -4.94600788	    -18.10282762	     22.47381728	      2.85303374	      1.95140761	      3.61863593	     12.25279291
      1.17000000	    -11.05164718	      1.86580107	    -33.17572231	     -1.57877726	      0.87561248	     -0.49170885	     10.29374273	     -0.08953659	      0.29724549	    -10.33931904	     15.28013351	      2.28300980	      9.91335675	     -8.64488994	     -4.93682233	    -18.08338569	     22.55106750	      2.86234278	      1.96689000	      3.64263008	     12.30892705
      1.18000000	    -11.12122815	      1.92555603	    -33.22836251	     -1.57690919	      0.87524735	     -0.49165390	     10.28536387	     -0.16960275	      0.36713373	    -10.35299733	     15.39567569	      2.37846864	      9.86722460	     -8.55600385	     -4.94921566	    -18.07091974	     22.66095720	      2.91074649	      1.95421218	      3.63262608	     12.35407452
      1.19000000	    -11.20984495	      1.97531112	    -33.26114066	     -1.57492706	      0.87485391	     -0.49159630	     10.26327429	     -0.23554646	      0.39978422	    -10.33393593	     15.49490079	      2.45221656	      9.83076692	     -8.48199966	     -4.94327906	    -18.05556873	     22.76345278	      2.96355814	      1.95528070	      3.64075749	     12.39581834
      1.20000000	    -11.29692727	      2.02292036	    -33.28999949	     -1.57287227	      0.87444442	     -0.49154322	     10.23691763	     -0.30388038	      0.43124432	    -10.32153510	     15.60011065	      2.52300683	      9.79806912	     -8.40647900	     -4.93857342	    -18.05735511	     22.88112789	      3.01504364	      1.94601486	      3.64860095	     12.43287505
      1.21000000	    -11.38840390	      2.06790012	    -33.31537629	     -1.57074562	      0.87401770	     -0.49147806	     10.20468131	     -0.36995719	      0.45903383	    -10.30256087	     15.70603899	      2.58669886	      9.76907316	     -8.33410247	     -4.92837160	    -18.06642730	     23.01331133	      3.05107973	      1.93336873	      3.65818911	     12.46884151
      1.22000000	    -11.48390321	      2.11117568	    -33.33618235	     -1.56852915	      0.87356842	     -0.49139948	     10.16663076	     -0.43571317	      0.48441388	    -10.28158214	     15.81873295	      2.65401366	      9.74050873	     -8.26262804	     -4.91670463	    -18.08126363	     23.16526775	      3.07207939	      1.91945552	      3.66906539	     12.50347473
      1.23000000	    -11.58530389	      2.15169710	    -33.35363856	     -1.56621981	      0.87309901	     -0.49129840	     10.12339947	     -0.49905605	      0.50269723	    -10.25672603	     15.93412907	      2.73217423	      9.71098122	     -8.19460432	     -4.90533933	    -18.09948913	     23.32924104	      3.07618829	      1.90800256	      3.68356604	     12.53597290
      1.24000000	    -11.69460836	      2.19034899	    -33.36811675	     -1.56381478	      0.87260541	     -0.49116478	     10.07396008	     -0.55949039	      0.50937536	    -10.22275513	     16.05263550	      2.83391361	      9.68047917	     -8.13159871	     -4.89476860	    -18.11940943	     23.50384760	      3.05846550	      1.90172447	      3.70135673	     12.56944236
      1.25000000	    -11.81279102	      2.22420728	    -33.37382572	     -1.56131939	      0.87209306	     -0.49102947	     10.02079870	     -0.61698296	      0.48781604	    -10.18257578	     16.17346606	      3.03538394	      9.65218431	     -8.07496085	     -4.89064114	    -18.13978207	     23.67826113	      2.98095776	      1.89482351	      3.72688824	     12.61686113
      1.26000000	    -11.94317721	      2.27074639	    -33.37742173	     -1.55871661	      0.87154858	     -0.49084403	      9.95664111	     -0.67793449	      0.50069279	    -10.10281619	     16.27581028	      3.07977008	      9.62126025	     -8.01163352	     -4.87617461	    -18.13751144	     23.85701766	      2.95674819	      1.91050378	      3.74494396	     12.63750145
      1.27000000	    -12.07936347	      2.31376376	    -33.37922382	     -1.55602151	      0.87097968	     -0.49062674	      9.88755198	     -0.73514140	      0.49461083	    -10.02137452	     16.39247462	      3.14395114	      9.58884594	     -7.95579115	     -4.87461161	    -18.14110281	     24.05559294	      2.90941962	      1.92515515	      3.76710424	     12.67188667
      1.28000000	    -12.22417483	      2.34781364	    -33.38418087	     -1.55323416	      0.87039203	     -0.49037772	      9.81698057	     -0.78484759	      0.45786838	     -9.94367219	     16.50736083	      3.36246236	      9.55542112	     -7.91301405	     -4.87503378	    -18.15629066	     24.26205661	      2.71402645	      1.93944356	      3.80096027	     12.72274807
      1.29000000	    -12.37980382	      2.40851830	    -33.38643559	     -1.55034614	      0.86976178	     -0.49008453	      9.74543953	     -0.85060562	      0.46135551	     -9.83290706	     16.61631332	      3.40806885	      9.52010914	     -7.84974221	     -4.86772599	    -18.13353250	     24.47196408	      2.66908198	      1.98163857	      3.81406370	     12.75241443
      1.30000000	    -12.54700719	      2.46001194	    -33.39033700	     -1.54738333	      0.86910074	     -0.48976612	      9.67484246	     -0.90393725	      0.44895401	     -9.72548837	     16.73235380	      3.48306561	      9.48602769	     -7.80312095	     -4.87236648	    -18.11858771	     24.71537739	      2.58298730	      2.02006007	      3.84196306	     12.79502666
      1.31000000	    -12.73699917	      2.50181511	    -33.39692088	     -1.54433057	      0.86839935	     -0.48940232	      9.61869335	     -0.93942694	      0.40440822	     -9.63178386	     16.83747358	      3.72603700	      9.46260641	     -7.78039963	     -4.88623775	    -18.11507211	     24.95799343	      2.29209622	      2.07334048	      3.89067651	     12.85904277
      1.32000000	    -12.91643875	      2.57081787	    -33.40569038	     -1.54118622	      0.86767352	     -0.48900974	      9.55714545	     -1.00543986	      0.39747623	     -9.52818055	     16.95458500	      3.77412301	      9.41359486	     -7.72214963	     -4.88808951	    -18.06365205	     25.19816275	      2.24654945	      2.12737276	      3.90619113	     12.90374317
      1.33000000	    -13.11891885	      2.63164389	    -33.43368478	     -1.53799993	      0.86689282	     -0.48856656	      9.53643568	     -1.05101415	      0.36496681	     -9.47605742	     17.09265251	      3.99306729	      9.38765377	     -7.69290446	     -4.93538510	    -18.04833466	     25.44488653	      2.05027399	      2.18965202	      3.94301587	     12.98554272
      1.34000000	    -13.30763762	      2.70876690	    -33.44971659	     -1.53470330	      0.86609985	     -0.48810749	      9.49806584	     -1.12142626	      0.36133498	     -9.41173819	     17.21990539	      4.05723463	      9.32978657	     -7.63158259	     -4.93908058	    -17.98373818	     25.66825307	      2.02232668	      2.24491936	      3.95466385	     13.03079691
      1.35000000	    -13.50188084	      2.79222376	    -33.47930794	     -1.53135208	      0.86525478	     -0.48760336	      9.49658041	     -1.19451357	      0.35205263	     -9.40807273	     17.39151276	      4.17545428	      9.27951704	     -7.57214849	     -4.97468626	    -17.93321167	     25.89183201	      1.98929128	      2.30045070	      3.96249880	     13.09650215
      1.36000000	    -13.71303413	      2.91466001	    -33.51958876	     -1.52793054	      0.86432246	     -0.48705754	      9.57427361	     -1.29602617	      0.32289604	     -9.49129813	     17.60767273	      4.46076094	      9.25803975	     -7.48955740	     -5.05093869	    -17.87998375	     26.04944674	      1.95760612	      2.39269016	      3.94185027	     13.18027929
      1.37000000	    -13.90670221	      3.02182807	    -33.54572638	     -1.52438753	      0.86337786	     -0.48649822	      9.62767933	     -1.39807759	      0.30781628	     -9.59103325	     17.83237448	      4.66262748	      9.19906294	     -7.40220916	     -5.08348825	    -17.80978846	     26.23861836	      1.97859687	      2.45148591	      3.92598834	     13.22816404
      1.38000000	    -14.09079088	      3.11318982	    -33.56324645	     -1.52072977	      0.86241063	     -0.48590501	      9.67532804	     -1.49195568	      0.31343740	     -9.73252057	     18.07049205	      4.77736369	      9.11189426	     -7.31680165	     -5.08052270	    -17.72997098	     26.45320380	      2.00437363	      2.48739233	      3.91562335	     13.28662155
